<?xml version="1.0" encoding="utf-8"?>
<!-- Generator: Adobe Illustrator 19.2.1, SVG Export Plug-In . SVG Version: 6.00 Build 0)  -->
<svg version="1.1" id="Layer_1" xmlns="http://www.w3.org/2000/svg" xmlns:xlink="http://www.w3.org/1999/xlink" x="0px" y="0px"
	 viewBox="0 0 392.5 248.7" style="enable-background:new 0 0 392.5 248.7;" xml:space="preserve">
<style type="text/css">
	.st0{fill:none;}
	.st1{fill:#6D6A6A;}
	.st2{font-family:'Roboto-Regular';}
	.st3{font-size:29.5874px;}
	.st4{letter-spacing:11;}
</style>
<rect x="158.3" y="212.6" class="st0" width="265.2" height="24.4"/>
<text transform="matrix(1 0 0 1 158.2701 234.8402)" class="st1 st2 st3 st4">GROWTH</text>
<g>
	<g>
		<path d="M56.5,236.8C78.3,207,69,160.6,37.7,141.1c-0.6,1.5-1.3,3-1.9,4.6c31,7.5,54.9,35.8,56.7,67.7c0.6-0.8,1.2-1.6,1.8-2.4
			c-11.7,4.2-24.9-1.5-29.9-12.9c-1.1,1.1-2.3,2.3-3.4,3.4c18,11.2,39.6-3.7,43.4-22.5c5-24.9-11.9-45.8-27.1-63.4
			c-2-2.3-5.1,0.6-3.9,3c6.2,13.2,13.1,26.1,20.8,38.5c3.5,5.6,7,11.4,11,16.6c2.9,3.8,6.8,7.4,11.8,7.7c8.8,0.5,13.4-8.5,13.8-16.2
			c0.6-12-9.9-20.7-11.4-32.3c-0.4,0.7-0.8,1.4-1.2,2.2c5.1-3.6,10.9,0.8,13.6,5.3c2.7,4.5,3.7,9.8,6.2,14.4
			c3.3,6.1,10.4,11.3,17.6,9.3c8.7-2.5,7.3-12.7,6.7-19.7c-1-12.7-2-25.3-3.1-38c-1.3,0.7-2.5,1.4-3.8,2.2c6.5,3.5,12.9,7,19.4,10.5
			c2.4,1.3,5.4-2.1,3-3.9c-4.4-3.4-8.8-6.9-13.1-10.3c-1.5-1.2-3.6-0.8-4.2,1.1c-3.3,10.3-4,21.1-2,31.6c1.3,7.1,5.3,16.3,13.4,17.8
			c8.8,1.7,10.5-8.3,11-14.8c0.8-11.9-0.7-23.9-4.1-35.3c-0.9-2.9-4.6-2-4.9,0.7c-1.5,12.6,5.4,25,16.8,30.4
			c1.1,0.5,2.8,0.4,3.4-0.9c6.7-13.7,6.9-29,0.9-43c-1-2.3-4.8-1.1-4.7,1.3c0.4,8.9,1,19.4,7.9,26c4.8,4.6,12.9,6.7,19,3.5
			c8-4.3,6.8-15.1,6.8-22.7c0-12.7-0.8-25.4-2.4-38.1c-0.8,0.8-1.7,1.7-2.5,2.5c8.3,0.7,15,5.7,18.5,13.1c1.2,2.6,5.5,0.8,4.6-1.9
			c-2.7-8.1-9.1-14.1-17.5-15.9c-1.7-0.4-3,0.7-3.2,2.4c-1.2,11.2-2.1,23.1-0.7,34.3c0.9,6.6,4.6,13,12,12.8
			c6.1-0.1,12-4.9,14.2-10.5c3.6-9.4-2.1-19.6-6.7-27.6c-1.4,0.8-2.9,1.7-4.3,2.5c11.2,16.1,20.4,33.4,27.3,51.7
			c1.4,3.6,2.8,7.1,2.6,11.1c-0.1,1.9-0.7,7.1-3.1,7.6c-2.8,0.5-3.1-9.6-3-11.7c0.2-4.7,1.4-9.2,2.8-13.7c2.7-8.5,6.4-16.7,8.4-25.4
			c1.8-7.6,2.6-15.5,2.4-23.3c-0.5-16.8-5.5-33.3-14.6-47.4c-1.4-2.3-5.7-0.8-4.6,1.9c8.7,22.1,17.5,44.2,26.2,66.3
			c1,2.4,5.1,2.4,4.9-0.7c-0.4-6.4,1-23.8,11.3-20.6c4.8,1.5,8.1,5.7,13.5,5.2c3.2-0.3,5.8-2.1,7.6-4.7c5-7.3,3.5-17.2,1.8-25.3
			c-2.3-11.8-6.9-23-13.2-33.2c-1.6-2.6-4.9-0.8-4.6,1.9c3.2,23.6,14.6,45.5,32,61.7c2.4,2.2,5.9-1.3,3.5-3.5
			c-16.9-15.7-27.7-36.7-30.8-59.5c-1.5,0.6-3,1.3-4.6,1.9c6.3,10.1,10.7,21.1,12.9,32.8c1.3,7.1,3,28.8-10.5,21.2
			c-6.4-3.6-13.1-6.1-18.6,0.4c-4.9,5.7-5.8,14.5-5.4,21.7c1.6-0.2,3.3-0.4,4.9-0.7c-8.7-22.1-17.5-44.2-26.2-66.3
			c-1.5,0.6-3,1.3-4.6,1.9c8.9,13.9,13.8,30,14,46.5c0.1,7.9-0.9,15.9-3,23.5c-2.2,7.8-5.5,15.3-7.9,23.1c-2.1,6.8-3.5,14-2.3,21.1
			c0.8,4.7,2.4,11.1,8.5,9.7c4.2-0.9,6.2-5.7,6.8-9.5c1.1-6.1-0.9-11.4-3.1-17c-6.9-18.1-16.1-35.3-27.2-51.3
			c-1.8-2.6-6-0.3-4.3,2.5c3.7,6.3,8.4,13.9,6.8,21.5c-1,5.1-7.3,11.2-12.9,8.5c-5.6-2.7-4.6-13.5-4.6-18.5
			c-0.1-7.7,0.4-15.4,1.2-23.1c-1.1,0.8-2.1,1.6-3.2,2.4c6.7,1.4,11.9,5.9,14,12.4c1.5-0.6,3-1.3,4.6-1.9
			c-4.3-9.1-12.9-14.8-22.8-15.6c-1.2-0.1-2.7,1.2-2.5,2.5c1.1,8.8,1.8,17.7,2.2,26.6c0.3,7.6,1.5,16.8-0.3,24.3
			c-1.9,7.9-11,7.9-16.3,3.3c-6.3-5.3-6.5-15.3-6.8-22.9c-1.6,0.4-3.1,0.8-4.7,1.3c5.3,12.2,4.9,26-0.9,38c1.1-0.3,2.3-0.6,3.4-0.9
			c-10-4.7-15.7-15.1-14.3-26.1c-1.6,0.2-3.3,0.4-4.9,0.7c2.3,7.8,3.7,15.7,4.1,23.8c0.2,4.5,1.4,24.2-7.3,19.1
			c-6.3-3.6-7.6-12.3-8.1-18.7c-0.7-8,0.4-15.9,2.8-23.6c-1.4,0.4-2.8,0.7-4.2,1.1c4.4,3.4,8.8,6.9,13.1,10.3c1-1.3,2-2.6,3-3.9
			c-6.5-3.5-12.9-7-19.4-10.5c-1.5-0.8-3.9,0.2-3.8,2.2c0.9,11,1.8,22.1,2.7,33.1c0.4,4.7,1.8,10.6,0.7,15.3
			c-1.5,6.4-8.5,5.3-12.3,1.7c-6.3-5.9-6.1-16.2-12.1-22.5c-4.5-4.7-11.8-7.3-17.5-3.2c-0.7,0.5-1.4,1.3-1.2,2.2
			c1.3,9.7,7.8,16.8,10.6,25.9c2.2,7.1-1.6,22.8-11.8,16c-4.3-2.9-7.1-8.3-9.8-12.5c-3.2-4.8-6.2-9.7-9.2-14.7
			c-6-10.2-11.5-20.7-16.5-31.5c-1.3,1-2.6,2-3.9,3c13,15,27.4,31.9,26.4,53c-0.4,9.4-4.3,18.5-12.3,23.8
			c-7.3,4.8-16.8,5.9-24.4,1.2c-2.3-1.4-4.4,1.3-3.4,3.4c5.9,13.2,21.9,20,35.6,15.2c1-0.4,1.9-1.3,1.8-2.4
			c-1.9-34-27.2-64.5-60.4-72.5c-2.8-0.7-4.4,3.1-1.9,4.6c29.2,18.1,37.2,61.2,16.9,88.8C50.2,236.9,54.6,239.4,56.5,236.8
			L56.5,236.8z"/>
	</g>
</g>
<g>
	<g>
		<path d="M287.3,51.8c18.9-4.6,35.2-16,46.2-31.9c1.8-2.6-2.5-5.2-4.3-2.5c-10.3,14.9-25.7,25.3-43.2,29.6
			C282.8,47.8,284.1,52.6,287.3,51.8L287.3,51.8z"/>
	</g>
</g>
<g>
	<g>
		<path d="M188.7,70.4c-0.1-0.7-0.1-1.5-0.2-2.2c-0.1-0.7-0.2-1.3-0.7-1.8c-0.4-0.4-1.1-0.8-1.8-0.7c-1.2,0.1-2.6,1.1-2.5,2.5
			c0.1,0.7,0.1,1.5,0.2,2.2c0.1,0.7,0.2,1.3,0.7,1.8c0.4,0.4,1.1,0.8,1.8,0.7C187.4,72.8,188.8,71.8,188.7,70.4L188.7,70.4z"/>
	</g>
</g>
<g>
	<g>
		<path d="M73.7,141.1c-2.2,1.3-4.3,2.5-6.5,3.8c1,1.3,2,2.6,3,3.9c14.5-11.7,29.7-22.5,45.3-32.6c2.7-1.7,0.2-6.1-2.5-4.3
			c-16,10.3-31.5,21.5-46.3,33.4c-2.3,1.8,0.6,5.3,3,3.9c2.2-1.3,4.3-2.5,6.5-3.8C79,143.8,76.5,139.5,73.7,141.1L73.7,141.1z"/>
	</g>
</g>
<g>
	<g>
		<path d="M247.4,185.4c2.1-1.2,3.2-3,4-5.2c1-2.7,1.3-9.1,5.9-5.7c3.1,2.3,3.7,6.9,5.7,10c1.4,2.1,3.3,4.1,5.6,5.1
			c14.5,6.1,11.3-28.6,10.8-34.7c-1.6,0.4-3.1,0.8-4.7,1.3c3.3,5.3,6.5,10.6,9.8,15.9c1,1.7,3.3,1.6,4.3,0c5.6-8.4,8.2-18,7.7-28
			c-1.6,0.2-3.3,0.4-4.9,0.7c6.2,18.9,10.7,38.3,13.3,58.1c0.4,3.1,4.7,3.3,5,0c1-11.6,0.5-23.2-1.4-34.7
			c-1.9-11.1-9.2-26.6-0.8-36.6c3.3-4,9.4-6.6,13.7-2.5c3.1,3,3.4,8.1,2.4,12c-2.8,10.4-15.5,13.6-24.6,16c-3.1,0.8-1.8,5.7,1.3,4.8
			c11.1-3,25.2-7.4,28.2-20.1c2.2-9.1-2.7-20.5-13.4-19.9c-13.5,0.7-17.5,16.3-15.9,27.2c1.3,9.1,4.2,17.9,5.2,27.1
			c1,8.8,1,17.7,0.3,26.5c1.7,0,3.3,0,5,0c-2.7-20.2-7.2-40-13.5-59.4c-0.8-2.6-5.1-2.3-4.9,0.7c0.5,9.3-1.9,17.8-7.1,25.5
			c1.4,0,2.9,0,4.3,0c-3.3-5.3-6.5-10.6-9.8-15.9c-1.2-2-4.9-1.3-4.7,1.3c0.4,4.5,0.6,8.9,0.4,13.4c-0.1,3.9,0.1,8.9-1.1,12.7
			c-3.5,10.7-9.5-6.1-12.1-9.1c-2.8-3.2-7.2-5-10.9-2.1c-3.5,2.7-2.4,9.2-6,11.3C242.1,182.7,244.6,187,247.4,185.4L247.4,185.4z"/>
	</g>
</g>
<g>
	<g>
		<path d="M368.8,183.6c2.9-38.4,1.7-76.9-3.5-115c-0.3-2.4-4.4-2.3-4.8,0c-2.6,14.9-7.3,29.2-14.1,42.8c-0.9,1.9,0.6,4.3,2.8,3.7
			c13.3-3.7,27-5.1,40.8-4.5c2.2,0.1,3.3-2.8,1.8-4.3c-10.2-9.6-20.4-19.3-30.6-28.9c-1.6-1.5-4.2-0.4-4.3,1.8
			c-0.2,11-0.3,21.9-0.5,32.9c0,2.4,3.5,3.5,4.7,1.3c4.5-8.7,14.4-13.1,23.9-10.6c3.1,0.8,4.4-4,1.3-4.8c-11.6-3.1-24,2.2-29.5,12.9
			c1.6,0.4,3.1,0.8,4.7,1.3c0.2-11,0.3-21.9,0.5-32.9c-1.4,0.6-2.8,1.2-4.3,1.8c10.2,9.6,20.4,19.3,30.6,28.9
			c0.6-1.4,1.2-2.8,1.8-4.3c-14.2-0.7-28.4,0.9-42.1,4.6c0.9,1.2,1.9,2.4,2.8,3.7c7-13.9,11.9-28.6,14.6-44c-1.6,0-3.2,0-4.8,0
			c5.2,37.7,6.2,75.8,3.3,113.6C363.6,186.8,368.6,186.8,368.8,183.6L368.8,183.6z"/>
	</g>
</g>
</svg>
